{
	"accessors" : 
	[
		{
			"bufferView" : 2,
			"byteOffset" : 0,
			"componentType" : 5126,
			"count" : 17888,
			"max" : 
			[
				1,
				1,
				1,
				1
			],
			"min" : 
			[
				0.05637409910559654,
				0.05284162983298302,
				0.0328759141266346,
				1
			],
			"name" : "accessor_color_m0-PolyPaper21_-151808",
			"type" : "VEC4"
		},
		{
			"bufferView" : 2,
			"byteOffset" : 286208,
			"componentType" : 5126,
			"count" : 7104,
			"max" : 
			[
				1,
				1,
				1,
				1
			],
			"min" : 
			[
				1,
				0.6120656132698059,
				0.2508402466773987,
				1
			],
			"name" : "accessor_color_m1-PolyPaper21_-151814",
			"type" : "VEC4"
		},
		{
			"bufferView" : 0,
			"byteOffset" : 0,
			"componentType" : 5123,
			"count" : 25914,
			"max" : 
			[
				17887
			],
			"min" : 
			[
				0
			],
			"name" : "accessor_indices_0_m0-PolyPaper21_-151808",
			"type" : "SCALAR"
		},
		{
			"bufferView" : 0,
			"byteOffset" : 51828,
			"componentType" : 5123,
			"count" : 10080,
			"max" : 
			[
				7103
			],
			"min" : 
			[
				0
			],
			"name" : "accessor_indices_0_m1-PolyPaper21_-151814",
			"type" : "SCALAR"
		},
		{
			"bufferView" : 1,
			"byteOffset" : 214656,
			"componentType" : 5126,
			"count" : 17888,
			"max" : 
			[
				0.999909,
				0.9979542,
				0.999797
			],
			"min" : 
			[
				-0.9999089,
				-0.9979547,
				-0.9997013
			],
			"name" : "accessor_normal_m0-PolyPaper21_-151808",
			"type" : "VEC3"
		},
		{
			"bufferView" : 1,
			"byteOffset" : 514560,
			"componentType" : 5126,
			"count" : 7104,
			"max" : 
			[
				0.9997961,
				0.9997218,
				0.9998683
			],
			"min" : 
			[
				-0.9997961,
				-0.9997218,
				-0.9998683
			],
			"name" : "accessor_normal_m1-PolyPaper21_-151814",
			"type" : "VEC3"
		},
		{
			"bufferView" : 1,
			"byteOffset" : 0,
			"componentType" : 5126,
			"count" : 17888,
			"max" : 
			[
				0.7320278,
				2.515388,
				1.137609
			],
			"min" : 
			[
				-0.6345109,
				1.076897,
				0.150138
			],
			"name" : "accessor_position_m0-PolyPaper21_-151808",
			"type" : "VEC3"
		},
		{
			"bufferView" : 1,
			"byteOffset" : 429312,
			"componentType" : 5126,
			"count" : 7104,
			"max" : 
			[
				0.3172066,
				2.592348,
				1.065316
			],
			"min" : 
			[
				-0.4490421,
				1.159328,
				0.1959928
			],
			"name" : "accessor_position_m1-PolyPaper21_-151814",
			"type" : "VEC3"
		}
	],
	"asset" : 
	{
		"copyright" : "Unknown",
		"generator" : "glTF 1-to-2 Upgrader for Google Blocks",
		"version" : "2.0"
	},
	"bufferViews" : 
	[
		{
			"buffer" : 0,
			"byteLength" : 71988,
			"byteOffset" : 0,
			"name" : "ushortBufferView",
			"target" : 34963
		},
		{
			"buffer" : 0,
			"byteLength" : 599808,
			"byteOffset" : 71988,
			"byteStride" : 12,
			"name" : "vec3BufferView",
			"target" : 34962
		},
		{
			"buffer" : 0,
			"byteLength" : 399872,
			"byteOffset" : 671796,
			"byteStride" : 16,
			"name" : "vec4BufferView",
			"target" : 34962
		}
	],
	"buffers" : 
	[
		{
			"byteLength" : 1071668,
			"name" : "model",
			"uri" : "model.bin"
		}
	],
	"materials" : 
	[
		{
			"alphaMode" : "OPAQUE",
			"doubleSided" : false,
			"name" : "BlocksPaper",
			"pbrMetallicRoughness" : 
			{
				"baseColorFactor" : 
				[
					1,
					1,
					1,
					1
				],
				"metallicFactor" : 0,
				"roughnessFactor" : 0.6
			}
		},
		{
			"alphaMode" : "BLEND",
			"doubleSided" : false,
			"name" : "BlocksGlass",
			"pbrMetallicRoughness" : 
			{
				"baseColorFactor" : 
				[
					0.2,
					0.2,
					1,
					0.3
				],
				"metallicFactor" : 1,
				"roughnessFactor" : 0.4
			}
		},
		{
			"alphaMode" : "OPAQUE",
			"doubleSided" : true,
			"name" : "BlocksGem",
			"pbrMetallicRoughness" : 
			{
				"baseColorFactor" : 
				[
					1,
					0.4,
					1,
					1
				],
				"metallicFactor" : 0,
				"roughnessFactor" : 0.1
			}
		}
	],
	"meshes" : 
	[
		{
			"name" : "mesh_m0-PolyPaper21_-151808",
			"primitives" : 
			[
				{
					"attributes" : 
					{
						"COLOR_0" : 0,
						"NORMAL" : 4,
						"POSITION" : 6
					},
					"indices" : 2,
					"material" : 0,
					"mode" : 4
				}
			]
		},
		{
			"name" : "mesh_m1-PolyPaper21_-151814",
			"primitives" : 
			[
				{
					"attributes" : 
					{
						"COLOR_0" : 1,
						"NORMAL" : 5,
						"POSITION" : 7
					},
					"indices" : 3,
					"material" : 0,
					"mode" : 4
				}
			]
		}
	],
	"nodes" : 
	[
		{
			"matrix" : 
			[
				1,
				0,
				0,
				0,
				0,
				1,
				0,
				0,
				0,
				0,
				1,
				0,
				0,
				0,
				0,
				1
			],
			"mesh" : 1,
			"name" : "node_MeshObject-1274233856-PolyPaper21"
		},
		{
			"matrix" : 
			[
				1,
				0,
				0,
				0,
				0,
				1,
				0,
				0,
				0,
				0,
				1,
				0,
				0,
				0,
				0,
				1
			],
			"mesh" : 0,
			"name" : "node_MeshObject-1564647424-PolyPaper21"
		}
	],
	"scene" : 0,
	"scenes" : 
	[
		{
			"extras" : {},
			"name" : "defaultScene",
			"nodes" : 
			[
				1,
				0
			]
		}
	]
}