{
	"accessors" : 
	[
		{
			"bufferView" : 2,
			"byteOffset" : 0,
			"componentType" : 5126,
			"count" : 14664,
			"max" : 
			[
				1,
				0.835527777671814,
				0.8277258276939392,
				1
			],
			"min" : 
			[
				0,
				0.05284162983298302,
				0.0328759141266346,
				1
			],
			"name" : "accessor_color_m0-PolyPaper11_-342446",
			"type" : "VEC4"
		},
		{
			"bufferView" : 2,
			"byteOffset" : 234624,
			"componentType" : 5126,
			"count" : 15504,
			"max" : 
			[
				1,
				0.835527777671814,
				0.7893137335777283,
				1
			],
			"min" : 
			[
				5.692175545846112e-05,
				0.01606770046055317,
				0.03994716703891754,
				1
			],
			"name" : "accessor_color_m1-PolyPaper12_-342452",
			"type" : "VEC4"
		},
		{
			"bufferView" : 0,
			"byteOffset" : 0,
			"componentType" : 5123,
			"count" : 20952,
			"max" : 
			[
				14663
			],
			"min" : 
			[
				0
			],
			"name" : "accessor_indices_0_m0-PolyPaper11_-342446",
			"type" : "SCALAR"
		},
		{
			"bufferView" : 0,
			"byteOffset" : 41904,
			"componentType" : 5123,
			"count" : 21888,
			"max" : 
			[
				15503
			],
			"min" : 
			[
				0
			],
			"name" : "accessor_indices_0_m1-PolyPaper12_-342452",
			"type" : "SCALAR"
		},
		{
			"bufferView" : 1,
			"byteOffset" : 175968,
			"componentType" : 5126,
			"count" : 14664,
			"max" : 
			[
				0.9993482,
				0.9996708,
				0.9993386
			],
			"min" : 
			[
				-0.9993482,
				-0.9999502,
				-0.9993387
			],
			"name" : "accessor_normal_m0-PolyPaper11_-342446",
			"type" : "VEC3"
		},
		{
			"bufferView" : 1,
			"byteOffset" : 537984,
			"componentType" : 5126,
			"count" : 15504,
			"max" : 
			[
				0.9960119,
				0.9996665,
				0.9978742
			],
			"min" : 
			[
				-0.9960117000000001,
				-0.9996668,
				-0.9978743
			],
			"name" : "accessor_normal_m1-PolyPaper12_-342452",
			"type" : "VEC3"
		},
		{
			"bufferView" : 1,
			"byteOffset" : 0,
			"componentType" : 5126,
			"count" : 14664,
			"max" : 
			[
				-0.3582948,
				2.422427,
				0.3636319
			],
			"min" : 
			[
				-0.8411952,
				1.537678,
				-0.1289354
			],
			"name" : "accessor_position_m0-PolyPaper11_-342446",
			"type" : "VEC3"
		},
		{
			"bufferView" : 1,
			"byteOffset" : 351936,
			"componentType" : 5126,
			"count" : 15504,
			"max" : 
			[
				-0.3882299,
				2.328175,
				0.3505608
			],
			"min" : 
			[
				-0.8397008,
				1.780655,
				-0.1196238
			],
			"name" : "accessor_position_m1-PolyPaper12_-342452",
			"type" : "VEC3"
		}
	],
	"asset" : 
	{
		"copyright" : "Unknown",
		"generator" : "glTF 1-to-2 Upgrader for Google Blocks",
		"version" : "2.0"
	},
	"bufferViews" : 
	[
		{
			"buffer" : 0,
			"byteLength" : 85680,
			"byteOffset" : 0,
			"name" : "ushortBufferView",
			"target" : 34963
		},
		{
			"buffer" : 0,
			"byteLength" : 724032,
			"byteOffset" : 85680,
			"byteStride" : 12,
			"name" : "vec3BufferView",
			"target" : 34962
		},
		{
			"buffer" : 0,
			"byteLength" : 482688,
			"byteOffset" : 809712,
			"byteStride" : 16,
			"name" : "vec4BufferView",
			"target" : 34962
		}
	],
	"buffers" : 
	[
		{
			"byteLength" : 1292400,
			"name" : "model",
			"uri" : "model.bin"
		}
	],
	"materials" : 
	[
		{
			"alphaMode" : "OPAQUE",
			"doubleSided" : false,
			"name" : "BlocksPaper",
			"pbrMetallicRoughness" : 
			{
				"baseColorFactor" : 
				[
					1,
					1,
					1,
					1
				],
				"metallicFactor" : 0,
				"roughnessFactor" : 0.6
			}
		},
		{
			"alphaMode" : "BLEND",
			"doubleSided" : false,
			"name" : "BlocksGlass",
			"pbrMetallicRoughness" : 
			{
				"baseColorFactor" : 
				[
					0.2,
					0.2,
					1,
					0.3
				],
				"metallicFactor" : 1,
				"roughnessFactor" : 0.4
			}
		},
		{
			"alphaMode" : "OPAQUE",
			"doubleSided" : true,
			"name" : "BlocksGem",
			"pbrMetallicRoughness" : 
			{
				"baseColorFactor" : 
				[
					1,
					0.4,
					1,
					1
				],
				"metallicFactor" : 0,
				"roughnessFactor" : 0.1
			}
		}
	],
	"meshes" : 
	[
		{
			"name" : "mesh_m0-PolyPaper11_-342446",
			"primitives" : 
			[
				{
					"attributes" : 
					{
						"COLOR_0" : 0,
						"NORMAL" : 4,
						"POSITION" : 6
					},
					"indices" : 2,
					"material" : 0,
					"mode" : 4
				}
			]
		},
		{
			"name" : "mesh_m1-PolyPaper12_-342452",
			"primitives" : 
			[
				{
					"attributes" : 
					{
						"COLOR_0" : 1,
						"NORMAL" : 5,
						"POSITION" : 7
					},
					"indices" : 3,
					"material" : 0,
					"mode" : 4
				}
			]
		}
	],
	"nodes" : 
	[
		{
			"matrix" : 
			[
				1,
				0,
				0,
				0,
				0,
				1,
				0,
				0,
				0,
				0,
				1,
				0,
				0,
				0,
				0,
				1
			],
			"mesh" : 1,
			"name" : "node_MeshObject-129124352-PolyPaper12"
		},
		{
			"matrix" : 
			[
				1,
				0,
				0,
				0,
				0,
				1,
				0,
				0,
				0,
				0,
				1,
				0,
				0,
				0,
				0,
				1
			],
			"mesh" : 0,
			"name" : "node_MeshObject1877526528-PolyPaper11"
		}
	],
	"scene" : 0,
	"scenes" : 
	[
		{
			"extras" : {},
			"name" : "defaultScene",
			"nodes" : 
			[
				1,
				0
			]
		}
	]
}